<svg xmlns="http://www.w3.org/2000/svg" width="358px" height="315px" xmlns:xlink="http://www.w3.org/1999/xlink" version="1.1"><defs/><g transform="translate(0.5,0.5)"><path d="M 42 312 L 42 42" fill="none" stroke="#555555" stroke-miterlimit="10" pointer-events="none"/><path d="M 172 312 L 172 42" fill="none" stroke="#555555" stroke-miterlimit="10" pointer-events="none"/><path d="M 302 312 L 302 42" fill="none" stroke="#555555" stroke-miterlimit="10" pointer-events="none"/><rect x="2" y="2" width="80" height="20" fill="none" stroke="none" pointer-events="none"/><g text-anchor="middle" font-size="14px"><text x="42" y="17" fill="#555555" font-family="Helvetica" font-weight="bold">Customer</text></g><rect x="132" y="2" width="80" height="20" fill="none" stroke="none" pointer-events="none"/><g text-anchor="middle" font-size="14px"><text x="172" y="17" fill="#555555" font-family="Helvetica" font-weight="bold">Cashier</text></g><rect x="262" y="2" width="80" height="20" fill="none" stroke="none" pointer-events="none"/><g text-anchor="middle" font-size="14px"><text x="302" y="17" fill="#555555" font-family="Helvetica" font-weight="bold">Restaurant crew</text></g><rect x="27" y="22" width="30" height="20" fill="none" stroke="none" pointer-events="none"/><g text-anchor="middle" font-size="12px"><text x="42" y="35" fill="#555555" font-family="Helvetica">client</text></g><rect x="157" y="22" width="30" height="20" fill="none" stroke="none" pointer-events="none"/><g text-anchor="middle" font-size="12px"><text x="172" y="35" fill="#555555" font-family="Helvetica">director</text></g><rect x="287" y="22" width="30" height="20" fill="none" stroke="none" pointer-events="none"/><g text-anchor="middle" font-size="12px"><text x="302" y="35" fill="#555555" font-family="Helvetica">builder</text></g><path d="M 42 82 L 166 82" fill="none" stroke="#555555" stroke-miterlimit="10" pointer-events="none"/><path d="M 171 82 L 164 86 L 166 82 L 164 79 Z" fill="#555555" stroke="#555555" stroke-miterlimit="10" pointer-events="none"/><rect x="52" y="62" width="100" height="20" fill="none" stroke="none" pointer-events="none"/><g font-size="12px"><text x="54" y="75" fill="#555555" font-family="Helvetica">Order kid's meal</text></g><rect x="182" y="92" width="100" height="20" fill="none" stroke="none" pointer-events="none"/><g font-size="12px"><text x="184" y="105" fill="#555555" font-family="Helvetica">Build</text></g><path d="M 172 112 L 296 112" fill="none" stroke="#555555" stroke-miterlimit="10" pointer-events="none"/><path d="M 301 112 L 294 116 L 296 112 L 294 109 Z" fill="#555555" stroke="#555555" stroke-miterlimit="10" pointer-events="none"/><rect x="182" y="141" width="100" height="20" fill="none" stroke="none" pointer-events="none"/><g font-size="12px"><text x="184" y="154" fill="#555555" font-family="Helvetica">Build</text></g><path d="M 172 161 L 296 161" fill="none" stroke="#555555" stroke-miterlimit="10" pointer-events="none"/><path d="M 301 161 L 294 164 L 296 161 L 294 157 Z" fill="#555555" stroke="#555555" stroke-miterlimit="10" pointer-events="none"/><rect x="182" y="190" width="100" height="20" fill="none" stroke="none" pointer-events="none"/><g font-size="12px"><text x="184" y="203" fill="#555555" font-family="Helvetica">Build</text></g><path d="M 172 210 L 296 210" fill="none" stroke="#555555" stroke-miterlimit="10" pointer-events="none"/><path d="M 301 210 L 294 214 L 296 210 L 294 207 Z" fill="#555555" stroke="#555555" stroke-miterlimit="10" pointer-events="none"/><rect x="182" y="240" width="100" height="20" fill="none" stroke="none" pointer-events="none"/><g font-size="12px"><text x="184" y="253" fill="#555555" font-family="Helvetica">Build</text></g><path d="M 172 260 L 296 260" fill="none" stroke="#555555" stroke-miterlimit="10" pointer-events="none"/><path d="M 301 260 L 294 264 L 296 260 L 294 257 Z" fill="#555555" stroke="#555555" stroke-miterlimit="10" pointer-events="none"/><rect x="52" y="281" width="100" height="20" fill="none" stroke="none" pointer-events="none"/><g font-size="12px"><text x="54" y="294" fill="#555555" font-family="Helvetica">Get meal</text></g><path d="M 42 301 L 296 301" fill="none" stroke="#555555" stroke-miterlimit="10" pointer-events="none"/><path d="M 301 301 L 294 305 L 296 301 L 294 298 Z" fill="#555555" stroke="#555555" stroke-miterlimit="10" pointer-events="none"/>


<svg version="1.1" xmlns="http://www.w3.org/2000/svg" xmlns:xlink="http://www.w3.org/1999/xlink" x="252" y="72" width="40" height="40" viewBox="0 0 103.424 75.924" style="enable-background:new 0 0 103.424 75.924;"
	 xml:space="preserve">
<g>
	<path style="fill:#F8AD55;" d="M96.812,53.914H6.61H5.536v2.379c0,10.797,8.835,19.631,19.631,19.631h13.384h26.321h13.385
		c10.796,0,19.63-8.834,19.63-19.631v-2.379H96.812z"/>
	<path style="fill:#F8AD55;" d="M97.887,33.016C97.887,14.857,83.03,0,64.872,0H38.551C20.394,0,5.536,14.857,5.536,33.016v1.492
		h92.351V33.016z"/>
	<circle style="fill:#FCD89F;" cx="25.755" cy="17.771" r="3.117"/>
	<circle style="fill:#FCD89F;" cx="78.297" cy="14.023" r="3.117"/>
	<circle style="fill:#FCD89F;" cx="65.69" cy="20.887" r="3.117"/>
	<circle style="fill:#FCD89F;" cx="37.03" cy="10.752" r="2.787"/>
	<circle style="fill:#FCD89F;" cx="45.59" cy="23.219" r="3.773"/>
	<circle style="fill:#FCD89F;" cx="55.168" cy="7.625" r="3.457"/>
	<g>
		<path style="fill:#BA4A51;" d="M102.933,50.385c0-1.941-2.409-3.529-5.354-3.529H5.844c-2.943,0-5.354,1.588-5.354,3.529
			s2.41,3.529,5.354,3.529h91.735C100.523,53.914,102.933,52.326,102.933,50.385z"/>
	</g>
	<polygon style="fill:#FCD89F;" points="19.218,45.811 63.534,59.789 97.887,45.811 	"/>
	<path style="fill:#6CA55E;" d="M97.582,38.969H52.828h-2.233H5.842c0,0-10.091,7.32-3.748,11.109
		c6.342,3.789,14.99-3.1,23.062-3.445c7.866-0.336,18.88,2.062,26.556,2.062s18.691-2.398,26.558-2.062
		c8.071,0.346,16.72,7.234,23.062,3.445S97.582,38.969,97.582,38.969z"/>
	<g>
		<path style="fill:#BA4A51;" d="M102.933,37.527c0-1.941-2.409-3.529-5.354-3.529H5.844c-2.943,0-5.354,1.588-5.354,3.529
			s2.41,3.529,5.354,3.529h91.735C100.523,41.057,102.933,39.469,102.933,37.527z"/>
	</g>
</g>
<g>
</g>
<g>
</g>
<g>
</g>
<g>
</g>
<g>
</g>
<g>
</g>
</svg>

<svg version="1.1" xmlns="http://www.w3.org/2000/svg" xmlns:xlink="http://www.w3.org/1999/xlink" x="252" y="170" width="40" height="40" viewBox="0 0 88.022 88.023" style="enable-background:new 0 0 88.022 88.023;"
	 xml:space="preserve">
<g>
	<g>
		<path style="fill:#FCD89F;" d="M44.012,0C19.705,0,0,19.705,0,44.012s19.705,44.012,44.012,44.012s44.011-19.705,44.011-44.012
			S68.318,0,44.012,0z M80.036,53.666c-0.866,3.238-2.811,5.736-4.451,8.572c-1.663,2.877-2.168,6.51-4.503,8.846
			c-2.334,2.334-4.918,4.652-7.794,6.316c-2.835,1.641-6.096,2.85-9.334,3.717c-3.13,0.836-6.548,0.854-9.942,0.854
			s-6.644-0.652-9.773-1.488C31,79.617,28.316,77.75,25.48,76.109c-2.877-1.664-6.373-2.525-8.707-4.859s-3.481-5.666-5.146-8.543
			c-1.64-2.836-4.63-5.307-5.496-8.547c-0.836-3.129-0.389-6.754-0.389-10.148s1.022-6.627,1.858-9.758
			c0.866-3.238,2.898-5.807,4.54-8.641c1.664-2.877,3.609-5.193,5.943-7.527c2.336-2.334,4.346-4.812,7.222-6.477
			c2.835-1.641,5.933-2.312,9.171-3.178c3.13-0.836,6.141-2.439,9.535-2.439s7.031-0.744,10.162,0.092
			c3.238,0.865,5.295,4.6,8.131,6.24c2.877,1.664,6.443,2.283,8.777,4.617c2.335,2.334,4.668,4.908,6.333,7.785
			c1.641,2.836,3.183,6.012,4.048,9.25c0.835,3.131,0.711,6.641,0.711,10.035S80.872,50.535,80.036,53.666z"/>
		<path style="fill:#F8AD55;" d="M81.463,33.977c-0.865-3.238-2.407-6.414-4.048-9.25c-1.665-2.877-3.998-5.451-6.333-7.785
			c-2.334-2.334-5.9-2.953-8.777-4.617c-2.836-1.641-4.893-5.375-8.131-6.24c-3.131-0.836-6.768-0.092-10.162-0.092
			s-6.405,1.604-9.535,2.439c-3.238,0.865-6.336,1.537-9.171,3.178c-2.876,1.664-4.886,4.143-7.222,6.477
			c-2.334,2.334-4.279,4.65-5.943,7.527c-1.642,2.834-3.674,5.402-4.54,8.641c-0.836,3.131-1.858,6.363-1.858,9.758
			s-0.447,7.02,0.389,10.148c0.866,3.24,3.856,5.711,5.496,8.547c1.665,2.877,2.812,6.209,5.146,8.543s5.83,3.195,8.707,4.859
			c2.836,1.641,5.52,3.508,8.758,4.373c3.13,0.836,6.379,1.488,9.773,1.488s6.812-0.018,9.942-0.854
			c3.238-0.867,6.499-2.076,9.334-3.717c2.876-1.664,5.46-3.982,7.794-6.316c2.335-2.336,2.84-5.969,4.503-8.846
			c1.641-2.836,3.585-5.334,4.451-8.572c0.836-3.131,2.138-6.26,2.138-9.654S82.298,37.107,81.463,33.977z M44.012,57.014
			c-7.181,0-13.002-5.82-13.002-13.002c0-7.18,5.821-13.002,13.002-13.002c7.18,0,13.002,5.822,13.002,13.002
			C57.014,51.193,51.191,57.014,44.012,57.014z"/>
	</g>
	<path style="fill:#6CA55E;" d="M24.462,23.275c-0.413,0.691-1.18,0.996-1.714,0.678l0,0c-0.534-0.316-0.631-1.137-0.219-1.828
		l1.631-2.736c0.412-0.693,1.179-0.998,1.713-0.68l0,0c0.534,0.318,0.632,1.139,0.219,1.83L24.462,23.275z"/>
	<path style="fill:#D7EAF3;" d="M37.412,17.926c0.408,0.695,0.302,1.516-0.234,1.828l0,0c-0.536,0.314-1.301,0.002-1.707-0.693
		l-1.607-2.75c-0.406-0.695-0.301-1.516,0.236-1.828l0,0c0.535-0.312,1.301-0.002,1.707,0.693L37.412,17.926z"/>
	<path style="fill:#D65F5F;" d="M35.565,24.664c0.67,0.449,0.932,1.232,0.586,1.748l0,0c-0.346,0.518-1.17,0.57-1.839,0.121
		l-2.646-1.773c-0.669-0.449-0.933-1.232-0.586-1.748l0,0c0.347-0.516,1.171-0.57,1.84-0.121L35.565,24.664z"/>
	<path style="fill:#649B74;" d="M22.268,30.912c0.029-0.805,0.555-1.439,1.176-1.418l0,0c0.621,0.021,1.102,0.693,1.072,1.5
		l-0.114,3.182c-0.027,0.805-0.554,1.441-1.175,1.42l0,0c-0.621-0.023-1.102-0.695-1.072-1.5L22.268,30.912z"/>
	<path style="fill:#D65F5F;" d="M12.145,43.174c-0.691-0.414-0.993-1.184-0.674-1.715l0,0c0.32-0.533,1.14-0.629,1.83-0.215
		l2.732,1.639c0.69,0.416,0.993,1.184,0.672,1.717l0,0c-0.318,0.533-1.139,0.627-1.83,0.213L12.145,43.174z"/>
	<path style="fill:#D7EAF3;" d="M10.521,36.377c-0.802-0.072-1.408-0.631-1.354-1.25l0,0c0.057-0.619,0.752-1.062,1.555-0.99
		l3.172,0.283c0.803,0.072,1.411,0.631,1.355,1.25l0,0c-0.057,0.619-0.754,1.062-1.555,0.99L10.521,36.377z"/>
	<path style="fill:#649B74;" d="M19.236,51.947c-0.773-0.223-1.264-0.887-1.093-1.484l0,0c0.171-0.598,0.938-0.9,1.715-0.678
		l3.062,0.881c0.773,0.221,1.265,0.885,1.092,1.482l0,0c-0.173,0.598-0.939,0.9-1.715,0.678L19.236,51.947z"/>
	<path style="fill:#D7EAF3;" d="M63.743,42.906c-0.57,0.572-1.39,0.68-1.828,0.24l0,0c-0.439-0.439-0.335-1.258,0.235-1.826
		l2.25-2.256c0.57-0.57,1.389-0.678,1.828-0.236l0,0c0.439,0.438,0.334,1.256-0.235,1.826L63.743,42.906z"/>
	<path style="fill:#6CA55E;" d="M19.38,64.381c-0.266,0.762-0.954,1.215-1.542,1.012l0,0c-0.587-0.203-0.849-0.986-0.585-1.748
		l1.042-3.01c0.265-0.762,0.953-1.215,1.541-1.012l0,0c0.588,0.203,0.849,0.986,0.585,1.748L19.38,64.381z"/>
	<path style="fill:#D65F5F;" d="M29.681,56.875c0.292-0.75,0.998-1.178,1.577-0.951l0,0c0.58,0.225,0.811,1.016,0.518,1.768
		l-1.156,2.969c-0.291,0.75-0.997,1.178-1.577,0.951l0,0c-0.578-0.225-0.81-1.018-0.518-1.768L29.681,56.875z"/>
	<path style="fill:#6CA55E;" d="M33.306,70.129c-0.518-0.619-0.549-1.445-0.071-1.842l0,0c0.478-0.396,1.283-0.217,1.799,0.402
		l2.038,2.447c0.517,0.619,0.548,1.443,0.07,1.842l0,0c-0.477,0.396-1.282,0.217-1.799-0.402L33.306,70.129z"/>
	<path style="fill:#649B74;" d="M51.508,16.145c-0.736-0.332-1.123-1.061-0.867-1.627l0,0c0.256-0.566,1.06-0.754,1.794-0.422
		l2.901,1.312c0.734,0.332,1.123,1.061,0.866,1.627l0,0c-0.256,0.566-1.06,0.756-1.794,0.422L51.508,16.145z"/>
	<path style="fill:#D65F5F;" d="M61.362,56.418c-0.634-0.498-0.837-1.297-0.452-1.785l0,0c0.383-0.488,1.209-0.48,1.842,0.018
		l2.503,1.971c0.636,0.498,0.838,1.297,0.452,1.785l0,0c-0.383,0.488-1.209,0.48-1.842-0.018L61.362,56.418z"/>
	<path style="fill:#D7EAF3;" d="M65.001,69.949c-0.743,0.316-1.542,0.105-1.783-0.467l0,0c-0.242-0.572,0.163-1.289,0.907-1.604
		l2.934-1.238c0.742-0.314,1.542-0.105,1.783,0.469l0,0c0.242,0.57-0.166,1.289-0.907,1.604L65.001,69.949z"/>
	<path style="fill:#D7EAF3;" d="M52.404,65.912c-0.532,0.605-1.342,0.764-1.809,0.355l0,0c-0.469-0.41-0.414-1.232,0.117-1.84
		l2.1-2.395c0.531-0.605,1.342-0.766,1.809-0.355l0,0c0.467,0.41,0.414,1.232-0.117,1.84L52.404,65.912z"/>
	<path style="fill:#6CA55E;" d="M69.739,37.107c-0.634-0.498-0.837-1.297-0.452-1.787l0,0c0.384-0.486,1.209-0.479,1.843,0.02
		l2.503,1.971c0.635,0.496,0.838,1.297,0.452,1.785l0,0c-0.384,0.488-1.21,0.48-1.843-0.02L69.739,37.107z"/>
	<path style="fill:#649B74;" d="M74.721,49.297c-0.744,0.314-1.543,0.105-1.784-0.467l0,0c-0.241-0.574,0.164-1.291,0.908-1.604
		l2.933-1.24c0.744-0.314,1.543-0.104,1.784,0.469l0,0c0.241,0.57-0.165,1.289-0.908,1.604L74.721,49.297z"/>
	<path style="fill:#D65F5F;" d="M49.545,76.393c-0.531,0.607-1.342,0.766-1.81,0.355l0,0c-0.468-0.41-0.414-1.232,0.118-1.84
		l2.1-2.395c0.531-0.605,1.342-0.766,1.809-0.355l0,0c0.467,0.41,0.414,1.234-0.118,1.84L49.545,76.393z"/>
	<path style="fill:#D65F5F;" d="M66.061,24.266c-0.672,0.445-1.496,0.387-1.839-0.131l0,0c-0.343-0.518-0.077-1.299,0.596-1.744
		l2.655-1.76c0.672-0.445,1.495-0.387,1.84,0.131l0,0c0.342,0.52,0.074,1.301-0.598,1.744L66.061,24.266z"/>
</g>
<g>
</g>
<g>
</g>
<g>
</g>
<g>
</g>
<g>
</g>
<g>
</g>
</svg>

<svg version="1.1" xmlns="http://www.w3.org/2000/svg" xmlns:xlink="http://www.w3.org/1999/xlink" x="252" y="122" width="40" height="40" viewBox="0 0 101.013 88.793" style="enable-background:new 0 0 101.013 88.793;"
	 xml:space="preserve">
<g>
	<polygon style="fill:#649B74;" points="47.514,73.688 10.039,73.688 2.9,4.387 54.652,4.387 	"/>
	<polygon style="fill:#E25A2C;" points="55.544,0 29.892,0 27.661,0 2.008,0 1.528,4.422 0,6.469 0.224,9.814 2.9,11.6 27.661,11.6 
		29.892,11.6 54.651,11.6 57.329,9.814 57.552,6.469 55.982,4.287 	"/>
	<g>
		<path style="fill:#BA4A51;" d="M34.795,28.617c-4.627-2.252-10.425-1.01-15.011,4.73c-4.999,6.256-4.476,12.744-0.357,16.725
			c0.015-0.02,5.008-6.066,9.83-9.156C34.051,37.844,34.784,28.752,34.795,28.617z"/>
		<path style="fill:#BA4A51;" d="M37.261,48.09c5.67-6.357,5.12-13.316,0.477-17.459c-0.265-0.234-0.539-0.453-0.818-0.66
			c0.058,0.807,0.445,8.443-5.444,12.336c-5.646,3.73-9.268,8.566-9.893,9.434C26.132,54.553,32.211,53.748,37.261,48.09z"/>
	</g>
	<g>
		<polygon style="fill:#BA4A51;" points="55.788,2.379 1.75,2.379 1.528,4.422 1.512,4.441 56.095,4.441 55.982,4.287 		"/>
	</g>
	<polygon style="fill:#F8AD55;" points="90.974,88.793 53.499,88.793 46.36,19.494 98.112,19.494 	"/>
	<polygon style="fill:#E25A2C;" points="99.005,15.107 73.352,15.107 71.121,15.107 45.469,15.107 44.988,19.527 43.461,21.574 
		43.684,24.922 46.361,26.705 71.121,26.705 73.352,26.705 98.112,26.705 100.789,24.922 101.013,21.574 99.442,19.395 	"/>
	<g>
		<path style="fill:#BA4A51;" d="M78.255,43.725c-4.627-2.254-10.426-1.01-15.01,4.729c-4.999,6.258-4.477,12.744-0.358,16.727
			c0.015-0.02,5.009-6.068,9.831-9.158C77.512,52.951,78.244,43.859,78.255,43.725z"/>
		<path style="fill:#BA4A51;" d="M80.722,63.195c5.67-6.355,5.119-13.316,0.477-17.457c-0.265-0.236-0.539-0.453-0.818-0.66
			c0.059,0.807,0.444,8.443-5.445,12.334c-5.645,3.73-9.268,8.568-9.893,9.436C69.593,69.66,75.672,68.855,80.722,63.195z"/>
	</g>
	<g>
		<polygon style="fill:#BA4A51;" points="99.247,17.486 45.21,17.486 44.988,19.527 44.973,19.549 99.555,19.549 99.442,19.395 		
			"/>
	</g>
</g>
<g>
</g>
<g>
</g>
<g>
</g>
<g>
</g>
<g>
</g>
<g>
</g>
</svg>

<svg version="1.1" xmlns="http://www.w3.org/2000/svg" xmlns:xlink="http://www.w3.org/1999/xlink" x="252" y="220" width="40" height="40" viewBox="0 0 110.218 78.617" style="enable-background:new 0 0 110.218 78.617;"
	 xml:space="preserve">
<g>
	<path style="fill:#BE1E2D;" d="M98.677,34.433H92.33V11.541C92.33,5.166,87.162,0,80.789,0H29.429
		c-6.373,0-11.541,5.166-11.541,11.541v22.892h-6.348C5.168,34.433,0,38.749,0,44.071v13.017c0,5.329,5.168,9.647,11.541,9.647h2.97
		c-0.115-0.808-0.194-1.628-0.194-2.467c0-9.714,7.905-17.612,17.621-17.612c9.715,0,17.619,7.898,17.619,17.612
		c0,0.839-0.079,1.659-0.193,2.467h11.495c-0.115-0.808-0.193-1.628-0.193-2.467c0-9.714,7.903-17.612,17.617-17.612
		c9.717,0,17.621,7.898,17.621,17.612c0,0.839-0.08,1.659-0.194,2.467h2.97c6.373,0,11.541-4.318,11.541-9.647V44.071
		C110.218,38.749,105.05,34.433,98.677,34.433z"/>
	<g>
		<path style="fill:#D1DFE7;" d="M51.552,27.026c0,3.824-3.101,6.925-6.926,6.925H31.354c-3.823,0-6.924-3.101-6.924-6.925V14.331
			c0-3.824,3.101-6.926,6.924-6.926h13.272c3.825,0,6.926,3.102,6.926,6.926V27.026z"/>
		<path style="fill:#D1DFE7;" d="M85.792,27.026c0,3.824-3.101,6.925-6.926,6.925H65.593c-3.824,0-6.924-3.101-6.924-6.925V14.331
			c0-3.824,3.1-6.926,6.924-6.926h13.272c3.825,0,6.926,3.102,6.926,6.926V27.026z"/>
	</g>
	<g>
		<path style="fill:#F7941E;" d="M102.14,34.875c-0.057,0.358-0.095,0.722-0.095,1.096v5.765c0,3.821,3.101,6.92,6.925,6.92h1.248
			v-4.584C110.218,39.757,106.822,36.104,102.14,34.875z"/>
	</g>
	<path style="fill:#754C29;" d="M78.281,49.925c-7.911,0-14.348,6.44-14.348,14.344c0,7.908,6.437,14.349,14.348,14.349
		c7.916,0,14.35-6.44,14.35-14.349C92.63,56.365,86.197,49.925,78.281,49.925z M78.281,69.189c-2.715,0-4.918-2.202-4.918-4.918
		s2.203-4.916,4.918-4.916c2.716,0,4.917,2.2,4.917,4.916S80.997,69.189,78.281,69.189z"/>
	<path style="fill:#754C29;" d="M31.937,49.925c-7.91,0-14.349,6.44-14.349,14.344c0,7.908,6.438,14.349,14.349,14.349
		c7.914,0,14.348-6.44,14.348-14.349C46.285,56.365,39.851,49.925,31.937,49.925z M31.937,69.189c-2.717,0-4.916-2.202-4.916-4.918
		s2.199-4.916,4.916-4.916c2.715,0,4.917,2.2,4.917,4.916S34.652,69.189,31.937,69.189z"/>
</g>
<g>
</g>
<g>
</g>
<g>
</g>
<g>
</g>
<g>
</g>
<g>
</g>
</svg>

</g></svg>